<?xml version="1.0" standalone="no"?><!DOCTYPE svg PUBLIC "-//W3C//DTD SVG 1.1//EN" "http://www.w3.org/Graphics/SVG/1.1/DTD/svg11.dtd"><svg t="1717604771292" class="icon" viewBox="0 0 1024 1024" version="1.1" xmlns="http://www.w3.org/2000/svg" p-id="25101" xmlns:xlink="http://www.w3.org/1999/xlink" width="200" height="200"><path d="M921.6 143.36H450.048l-13.824-26.112c-10.24-19.968-27.136-37.376-47.616-46.592-13.312-6.144-27.648-9.216-42.496-9.216H102.4C46.08 61.44 0 107.52 0 163.84v696.32c0 56.32 46.08 102.4 102.4 102.4h819.2c56.32 0 102.4-46.08 102.4-102.4V245.76c0-56.32-46.08-102.4-102.4-102.4zM206.336 798.72c-22.528 0-40.96-18.432-40.96-40.96s18.432-40.96 40.96-40.96 40.96 18.432 40.96 40.96-18.432 40.96-40.96 40.96z m326.144 0H327.68c-22.528 0-40.96-18.432-40.96-40.96s18.432-40.96 40.96-40.96h204.8c22.528 0 40.96 18.432 40.96 40.96s-18.432 40.96-40.96 40.96z m409.6-491.52h-346.112c-14.848 0-29.184-3.072-42.496-9.216-20.992-9.216-37.376-26.112-47.616-46.592L492.544 225.28H921.6c11.264 0 20.48 9.216 20.48 20.48v61.44z" p-id="25102"></path></svg>