<?xml version="1.0" standalone="no"?><!DOCTYPE svg PUBLIC "-//W3C//DTD SVG 1.1//EN" "http://www.w3.org/Graphics/SVG/1.1/DTD/svg11.dtd"><svg fill="#fff" t="1717604560848" class="icon" viewBox="0 0 1024 1024" version="1.1" xmlns="http://www.w3.org/2000/svg" p-id="9462" xmlns:xlink="http://www.w3.org/1999/xlink" width="200" height="200"><path fill="white" d="M100.57142844 32h822.85714312a68.57142844 68.57142844 0 0 1 68.57142844 68.57142844v822.85714312a68.57142844 68.57142844 0 0 1-68.57142844 68.57142844H100.57142844a68.57142844 68.57142844 0 0 1-68.57142844-68.57142844V100.57142844a68.57142844 68.57142844 0 0 1 68.57142844-68.57142844z m334.90285687 345.29142844l116.36571469-116.36571375-58.18285687-58.18285782-116.36571469 116.36571469L260.92571469 202.74285688 202.74285688 260.92571469l116.36571468 116.36571375-116.36571468 116.36571469 58.18285781 58.18285687 116.36571375-116.36571469 116.36571469 116.36571469 58.18285687-58.18285687-116.36571469-116.36571469zM512 786.28571469v68.57142844h342.85714312v-68.57142844H512z" p-id="9463"></path></svg>